<?xml version="1.0" standalone="no"?>
<!DOCTYPE svg PUBLIC "-//W3C//DTD SVG 1.1//EN" "http://www.w3.org/Graphics/SVG/1.1/DTD/svg11.dtd">
<svg width="56mm" height="161mm" viewBox="-1 -160 56 161" xmlns="http://www.w3.org/2000/svg" version="1.1">
<title>OpenSCAD Model</title>
<path d="
M 46.1205,-156.415 L 46.4785,-156.415 L 46.4785,-156.77 L 46.1394,-156.77 L 46.1394,-158.729 L 46.1303,-158.885
 L 46.1028,-159.02 L 46.057,-159.134 L 45.993,-159.227 L 45.9106,-159.3 L 45.8099,-159.352 L 45.6909,-159.383
 L 45.5535,-159.393 L 45.4906,-159.392 L 45.4281,-159.389 L 45.3659,-159.384 L 45.304,-159.377 L 45.2424,-159.368
 L 45.1812,-159.357 L 45.1204,-159.344 L 45.0599,-159.328 L 45.0599,-158.968 L 45.1046,-158.976 L 45.1467,-158.984
 L 45.186,-158.991 L 45.2226,-158.996 L 45.2565,-159 L 45.2877,-159.003 L 45.3162,-159.005 L 45.3419,-159.006
 L 45.3831,-159.004 L 45.4211,-159 L 45.4558,-158.993 L 45.4874,-158.984 L 45.5158,-158.972 L 45.5411,-158.957
 L 45.5631,-158.94 L 45.582,-158.92 L 45.5982,-158.897 L 45.6123,-158.869 L 45.6242,-158.838 L 45.6339,-158.803
 L 45.6415,-158.764 L 45.6469,-158.721 L 45.6501,-158.674 L 45.6512,-158.623 L 45.6512,-156.77 L 45.1087,-156.77
 L 45.1087,-156.415 L 45.6512,-156.415 L 45.6512,-155.759 L 45.9767,-155.759 z
M 47.3963,-159.35 L 46.9081,-159.35 L 46.9081,-156.415 L 47.3963,-156.415 z
M 53.6167,-157.557 L 54.349,-156.415 L 54.8888,-156.415 L 53.8933,-157.842 L 54.9376,-159.35 L 54.4114,-159.35
 L 53.6167,-158.146 L 52.8273,-159.35 L 52.2821,-159.35 L 53.34,-157.836 L 52.3445,-156.415 L 52.8897,-156.415
 z
M 50.6422,-156.363 L 50.7112,-156.368 L 50.7774,-156.378 L 50.8409,-156.391 L 50.9015,-156.409 L 50.9594,-156.43
 L 51.0144,-156.454 L 51.0667,-156.483 L 51.1168,-156.516 L 51.1655,-156.556 L 51.2128,-156.601 L 51.2586,-156.652
 L 51.303,-156.71 L 51.3459,-156.773 L 51.3874,-156.842 L 51.4274,-156.917 L 51.4356,-156.917 L 51.4369,-156.865
 L 51.4382,-156.818 L 51.4395,-156.775 L 51.4407,-156.737 L 51.4418,-156.703 L 51.4429,-156.673 L 51.444,-156.647
 L 51.4451,-156.625 L 51.4479,-156.57 L 51.4496,-156.536 L 51.4525,-156.474 L 51.4532,-156.461 L 51.4539,-156.45
 L 51.4546,-156.44 L 51.4553,-156.432 L 51.4559,-156.425 L 51.4566,-156.419 L 51.4573,-156.415 L 51.9184,-156.415
 L 51.9146,-156.45 L 51.9113,-156.497 L 51.9085,-156.557 L 51.9062,-156.629 L 51.9044,-156.713 L 51.9032,-156.81
 L 51.9024,-156.92 L 51.9021,-157.042 L 51.9021,-159.35 L 51.4166,-159.35 L 51.4166,-157.649 L 51.4138,-157.544
 L 51.4052,-157.444 L 51.391,-157.351 L 51.3712,-157.264 L 51.3456,-157.183 L 51.3144,-157.108 L 51.2775,-157.039
 L 51.2349,-156.977 L 51.1874,-156.921 L 51.1359,-156.872 L 51.0802,-156.831 L 51.0206,-156.798 L 50.9568,-156.771
 L 50.889,-156.753 L 50.8171,-156.742 L 50.7412,-156.738 L 50.6682,-156.74 L 50.601,-156.748 L 50.5397,-156.761
 L 50.4842,-156.779 L 50.4346,-156.801 L 50.3908,-156.829 L 50.3528,-156.862 L 50.3208,-156.901 L 50.2934,-156.945
 L 50.2697,-156.998 L 50.2497,-157.06 L 50.2333,-157.129 L 50.2205,-157.207 L 50.2114,-157.293 L 50.2059,-157.387
 L 50.2041,-157.489 L 50.2041,-159.35 L 49.7213,-159.35 L 49.7213,-157.649 L 49.7185,-157.543 L 49.7102,-157.443
 L 49.6963,-157.35 L 49.6769,-157.262 L 49.6519,-157.181 L 49.6214,-157.106 L 49.5853,-157.038 L 49.5436,-156.975
 L 49.497,-156.92 L 49.4459,-156.871 L 49.3904,-156.831 L 49.3304,-156.797 L 49.2659,-156.771 L 49.197,-156.753
 L 49.1237,-156.742 L 49.0459,-156.738 L 48.9728,-156.74 L 48.9057,-156.748 L 48.8443,-156.761 L 48.7889,-156.779
 L 48.7392,-156.801 L 48.6954,-156.829 L 48.6575,-156.862 L 48.6254,-156.901 L 48.5981,-156.945 L 48.5744,-156.998
 L 48.5544,-157.06 L 48.5379,-157.129 L 48.5252,-157.207 L 48.5161,-157.293 L 48.5106,-157.387 L 48.5088,-157.489
 L 48.5088,-159.35 L 48.026,-159.35 L 48.026,-157.394 L 48.0291,-157.261 L 48.0386,-157.138 L 48.0544,-157.025
 L 48.0765,-156.921 L 48.1049,-156.827 L 48.1397,-156.742 L 48.1807,-156.667 L 48.2281,-156.602 L 48.2824,-156.546
 L 48.3443,-156.497 L 48.4138,-156.455 L 48.4908,-156.421 L 48.5755,-156.395 L 48.6677,-156.376 L 48.7676,-156.365
 L 48.875,-156.361 L 48.9502,-156.363 L 49.0226,-156.369 L 49.0921,-156.379 L 49.1588,-156.393 L 49.2226,-156.412
 L 49.2836,-156.434 L 49.3418,-156.461 L 49.3972,-156.491 L 49.4501,-156.526 L 49.501,-156.566 L 49.5499,-156.612
 L 49.5968,-156.663 L 49.6418,-156.718 L 49.6848,-156.779 L 49.7257,-156.846 L 49.7647,-156.917 L 49.7728,-156.917
 L 49.7937,-156.847 L 49.8182,-156.782 L 49.8464,-156.721 L 49.8783,-156.666 L 49.9139,-156.616 L 49.9531,-156.57
 L 49.9961,-156.529 L 50.0428,-156.494 L 50.0934,-156.463 L 50.1484,-156.436 L 50.2078,-156.413 L 50.2716,-156.394
 L 50.3397,-156.38 L 50.4122,-156.369 L 50.4891,-156.363 L 50.5703,-156.361 z
M 47.3963,-155.791 L 46.9081,-155.791 L 46.9081,-155.325 L 47.3963,-155.325 z
M 0.0104523,-148.801 L 0.0207825,-148.802 L 0.030899,-148.805 L 0.0406647,-148.809 L 0.0499878,-148.813 L 0.0587769,-148.819
 L 0.0669098,-148.826 L 0.0743103,-148.833 L 0.0808868,-148.841 L 0.0865936,-148.85 L 0.0913544,-148.859 L 0.0950928,-148.869
 L 0.0978088,-148.879 L 0.0994415,-148.89 L 0.0999908,-148.9 L 0.0994415,-148.91 L 0.0978088,-148.921 L 0.0950928,-148.931
 L 0.0913544,-148.941 L 0.0865936,-148.95 L 0.0808868,-148.959 L 0.0743103,-148.967 L 0.0669098,-148.974 L 0.0587769,-148.981
 L 0.0499878,-148.987 L 0.0406647,-148.991 L 0.030899,-148.995 L 0.0207825,-148.998 L 0.0104523,-148.999 L 0,-149
 L -0.0104523,-148.999 L -0.0207825,-148.998 L -0.030899,-148.995 L -0.0406647,-148.991 L -0.0499878,-148.987 L -0.0587769,-148.981
 L -0.0669098,-148.974 L -0.0743103,-148.967 L -0.0808868,-148.959 L -0.0865936,-148.95 L -0.0913544,-148.941 L -0.0950928,-148.931
 L -0.0978088,-148.921 L -0.0994415,-148.91 L -0.0999908,-148.9 L -0.0994415,-148.89 L -0.0978088,-148.879 L -0.0950928,-148.869
 L -0.0913544,-148.859 L -0.0865936,-148.85 L -0.0808868,-148.841 L -0.0743103,-148.833 L -0.0669098,-148.826 L -0.0587769,-148.819
 L -0.0499878,-148.813 L -0.0406647,-148.809 L -0.030899,-148.805 L -0.0207825,-148.802 L -0.0104523,-148.801 L 0,-148.8
 z
M 9.71976,-57.9507 L 8.74319,-57.9507 L 8.74319,-57.0176 L 9.71976,-57.0176 z
M 23.8183,-52.8295 L 24.8165,-53.589 L 27.8708,-49.9 L 29.1564,-49.9 L 25.4675,-54.2237 L 28.7225,-57.5438
 L 27.5018,-57.5438 L 23.8183,-53.7137 L 23.8183,-57.5438 L 22.7821,-57.5438 L 22.7821,-49.9 L 23.8183,-49.9
 z
M 48.3495,-52.9597 L 48.3545,-53.1967 L 48.3695,-53.4196 L 48.3945,-53.6284 L 48.4296,-53.823 L 48.4746,-54.0034
 L 48.5296,-54.1696 L 48.5946,-54.3217 L 48.6696,-54.4597 L 48.7541,-54.5824 L 48.8476,-54.6887 L 48.9501,-54.7787
 L 49.0616,-54.8523 L 49.182,-54.9096 L 49.3115,-54.9505 L 49.4499,-54.975 L 49.5973,-54.9832 L 49.6766,-54.9823
 L 49.7519,-54.9798 L 49.8231,-54.9756 L 49.8902,-54.9696 L 49.9533,-54.962 L 50.0123,-54.9527 L 50.0672,-54.9417
 L 50.1181,-54.9289 L 50.1181,-55.8241 L 50.068,-55.8368 L 50.018,-55.8478 L 49.9683,-55.8571 L 49.9187,-55.8647
 L 49.8692,-55.8707 L 49.82,-55.8749 L 49.7709,-55.8775 L 49.722,-55.8783 L 49.5876,-55.874 L 49.4609,-55.861
 L 49.3421,-55.8394 L 49.231,-55.8091 L 49.1278,-55.7702 L 49.0323,-55.7227 L 48.9447,-55.6665 L 48.8648,-55.6017
 L 48.79,-55.525 L 48.7173,-55.4335 L 48.6469,-55.327 L 48.5787,-55.2057 L 48.5126,-55.0694 L 48.4488,-54.9182
 L 48.3872,-54.752 L 48.3278,-54.571 L 48.3061,-54.571 L 48.3054,-54.6336 L 48.3034,-54.7211 L 48.3,-54.8336
 L 48.2952,-54.971 L 48.2892,-55.1333 L 48.2817,-55.3206 L 48.2729,-55.5327 L 48.2627,-55.7698 L 47.3405,-55.7698
 L 47.3481,-55.5847 L 47.3547,-55.4036 L 47.3603,-55.2267 L 47.3649,-55.0537 L 47.3684,-54.8849 L 47.3709,-54.7201
 L 47.3725,-54.5594 L 47.373,-54.4027 L 47.373,-49.9 L 48.3495,-49.9 z
M 44.1493,-49.8132 L 44.5531,-49.8783 L 44.9149,-49.9868 L 45.2349,-50.1387 L 45.513,-50.334 L 45.7493,-50.5727
 L 45.9436,-50.8548 L 46.0961,-51.1803 L 45.239,-51.4244 L 45.2012,-51.3289 L 45.1557,-51.2376 L 45.1025,-51.1505
 L 45.0416,-51.0677 L 44.973,-50.9891 L 44.8967,-50.9148 L 44.8126,-50.8447 L 44.7208,-50.7788 L 44.6213,-50.719
 L 44.5139,-50.6672 L 44.3986,-50.6234 L 44.2754,-50.5876 L 44.1443,-50.5597 L 44.0053,-50.5398 L 43.8585,-50.5278
 L 43.7037,-50.5238 L 43.509,-50.5324 L 43.3263,-50.5581 L 43.1557,-50.6009 L 42.9971,-50.6608 L 42.8505,-50.7379
 L 42.716,-50.832 L 42.5935,-50.9433 L 42.483,-51.0717 L 42.3851,-51.216 L 42.3003,-51.3746 L 42.2285,-51.5476
 L 42.1697,-51.735 L 42.1241,-51.9368 L 42.0914,-52.1531 L 42.0718,-52.3837 L 42.0653,-52.6288 L 46.2535,-52.6288
 L 46.2535,-52.7589 L 46.213,-53.4901 L 46.0918,-54.1237 L 45.8896,-54.6598 L 45.6065,-55.0985 L 45.2426,-55.4397
 L 44.7979,-55.6833 L 44.2722,-55.8296 L 43.6657,-55.8783 L 43.3588,-55.8662 L 43.0702,-55.8298 L 42.7997,-55.7692
 L 42.5475,-55.6844 L 42.3135,-55.5753 L 42.0977,-55.4419 L 41.9002,-55.2844 L 41.7208,-55.1025 L 41.5613,-54.898
 L 41.423,-54.6723 L 41.306,-54.4254 L 41.2102,-54.1572 L 41.1358,-53.8679 L 41.0826,-53.5574 L 41.0507,-53.2258
 L 41.04,-52.8729 L 41.0507,-52.5022 L 41.0826,-52.1551 L 41.1358,-51.8315 L 41.2102,-51.5315 L 41.306,-51.2551
 L 41.423,-51.0023 L 41.5613,-50.773 L 41.7208,-50.5673 L 41.9008,-50.3855 L 42.1001,-50.2279 L 42.3188,-50.0945
 L 42.557,-49.9854 L 42.8146,-49.9006 L 43.0915,-49.84 L 43.3879,-49.8036 L 43.7037,-49.7915 z
M 42.0762,-53.3774 L 42.0903,-53.5794 L 42.1164,-53.7702 L 42.1544,-53.95 L 42.2044,-54.1186 L 42.2663,-54.2761
 L 42.3401,-54.4225 L 42.4259,-54.5579 L 42.5237,-54.6821 L 42.6321,-54.7933 L 42.7497,-54.8898 L 42.8766,-54.9713
 L 43.0127,-55.0381 L 43.158,-55.09 L 43.3126,-55.1271 L 43.4764,-55.1494 L 43.6495,-55.1568 L 43.8272,-55.1501
 L 43.9943,-55.1302 L 44.1507,-55.0969 L 44.2964,-55.0503 L 44.4314,-54.9904 L 44.5557,-54.9173 L 44.6694,-54.8307
 L 44.7724,-54.7309 L 44.8652,-54.6166 L 44.9483,-54.4867 L 45.0219,-54.341 L 45.0857,-54.1796 L 45.1398,-54.0026
 L 45.1844,-53.8099 L 45.2192,-53.6015 L 45.2444,-53.3774 z
M 13.6389,-49.7994 L 13.8569,-49.8231 L 14.0648,-49.8625 L 14.2624,-49.9176 L 14.4499,-49.9886 L 14.6273,-50.0753
 L 14.7944,-50.1777 L 14.9514,-50.296 L 15.0956,-50.4275 L 15.2244,-50.5696 L 15.3377,-50.7225 L 15.4356,-50.886
 L 15.5181,-51.0602 L 15.5851,-51.2451 L 15.6367,-51.4406 L 15.6729,-51.6469 L 14.6856,-51.7119 L 14.661,-51.5702
 L 14.6281,-51.438 L 14.5868,-51.3152 L 14.5371,-51.202 L 14.479,-51.0982 L 14.4125,-51.004 L 14.3376,-50.9192
 L 14.2543,-50.8439 L 14.1641,-50.7778 L 14.0686,-50.7205 L 13.9678,-50.672 L 13.8616,-50.6323 L 13.7502,-50.6015
 L 13.6333,-50.5795 L 13.5111,-50.5662 L 13.3836,-50.5618 L 13.2036,-50.5706 L 13.0354,-50.5971 L 12.8788,-50.6412
 L 12.7339,-50.7029 L 12.6008,-50.7822 L 12.4793,-50.8792 L 12.3695,-50.9938 L 12.2714,-51.126 L 12.185,-51.2765
 L 12.11,-51.4461 L 12.0466,-51.6346 L 11.9948,-51.8421 L 11.9544,-52.0686 L 11.9256,-52.3141 L 11.9083,-52.5786
 L 11.9025,-52.8621 L 11.908,-53.1562 L 11.9242,-53.4283 L 11.9514,-53.6783 L 11.9893,-53.9063 L 12.0382,-54.1123
 L 12.0978,-54.2962 L 12.1684,-54.4581 L 12.2497,-54.598 L 12.3432,-54.7188 L 12.4501,-54.8235 L 12.5704,-54.9121
 L 12.7041,-54.9846 L 12.8512,-55.0409 L 13.0116,-55.0812 L 13.1855,-55.1054 L 13.3728,-55.1134 L 13.5111,-55.1089
 L 13.6413,-55.0955 L 13.7634,-55.073 L 13.8773,-55.0415 L 13.9831,-55.0011 L 14.0807,-54.9517 L 14.1702,-54.8933
 L 14.2516,-54.8259 L 14.3253,-54.7509 L 14.3916,-54.6696 L 14.4507,-54.582 L 14.5025,-54.4882 L 14.547,-54.3881
 L 14.5842,-54.2817 L 14.6142,-54.1691 L 14.6368,-54.0501 L 15.6404,-54.1261 L 15.5955,-54.3253 L 15.5368,-54.5136
 L 15.4643,-54.6909 L 15.378,-54.8571 L 15.2778,-55.0123 L 15.1638,-55.1565 L 15.0361,-55.2896 L 14.8945,-55.4117
 L 14.7412,-55.5211 L 14.5783,-55.6159 L 14.4058,-55.6961 L 14.2238,-55.7617 L 14.0322,-55.8127 L 13.831,-55.8492
 L 13.6202,-55.871 L 13.3999,-55.8783 L 13.1049,-55.8661 L 12.8276,-55.8297 L 12.5678,-55.7688 L 12.3257,-55.6837
 L 12.1013,-55.5742 L 11.8944,-55.4404 L 11.7052,-55.2823 L 11.5337,-55.0998 L 11.3811,-54.8942 L 11.2489,-54.6667
 L 11.137,-54.4172 L 11.0454,-54.1457 L 10.9742,-53.8523 L 10.9234,-53.5369 L 10.8929,-53.1996 L 10.8827,-52.8403
 L 10.8928,-52.4785 L 10.9232,-52.139 L 10.9739,-51.8217 L 11.0448,-51.5268 L 11.1359,-51.2542 L 11.2473,-51.0038
 L 11.379,-50.7758 L 11.5309,-50.57 L 11.7021,-50.3875 L 11.8915,-50.2294 L 12.0992,-50.0956 L 12.325,-49.9861
 L 12.5691,-49.901 L 12.8314,-49.8402 L 13.112,-49.8037 L 13.4107,-49.7915 z
M 19.4174,-49.8132 L 19.8211,-49.8783 L 20.183,-49.9868 L 20.5029,-50.1387 L 20.7811,-50.334 L 21.0173,-50.5727
 L 21.2117,-50.8548 L 21.3642,-51.1803 L 20.507,-51.4244 L 20.4693,-51.3289 L 20.4238,-51.2376 L 20.3706,-51.1505
 L 20.3097,-51.0677 L 20.241,-50.9891 L 20.1647,-50.9148 L 20.0806,-50.8447 L 19.9889,-50.7788 L 19.8893,-50.719
 L 19.7819,-50.6672 L 19.6666,-50.6234 L 19.5434,-50.5876 L 19.4123,-50.5597 L 19.2734,-50.5398 L 19.1265,-50.5278
 L 18.9718,-50.5238 L 18.777,-50.5324 L 18.5944,-50.5581 L 18.4237,-50.6009 L 18.2651,-50.6608 L 18.1185,-50.7379
 L 17.984,-50.832 L 17.8615,-50.9433 L 17.7511,-51.0717 L 17.6532,-51.216 L 17.5683,-51.3746 L 17.4965,-51.5476
 L 17.4378,-51.735 L 17.3921,-51.9368 L 17.3595,-52.1531 L 17.3399,-52.3837 L 17.3334,-52.6288 L 21.5215,-52.6288
 L 21.5215,-52.7589 L 21.4811,-53.4901 L 21.3598,-54.1237 L 21.1576,-54.6598 L 20.8746,-55.0985 L 20.5107,-55.4397
 L 20.0659,-55.6833 L 19.5403,-55.8296 L 18.9338,-55.8783 L 18.6269,-55.8662 L 18.3382,-55.8298 L 18.0678,-55.7692
 L 17.8156,-55.6844 L 17.5815,-55.5753 L 17.3658,-55.4419 L 17.1682,-55.2844 L 16.9889,-55.1025 L 16.8293,-54.898
 L 16.691,-54.6723 L 16.574,-54.4254 L 16.4783,-54.1572 L 16.4038,-53.8679 L 16.3506,-53.5574 L 16.3187,-53.2258
 L 16.3081,-52.8729 L 16.3187,-52.5022 L 16.3506,-52.1551 L 16.4038,-51.8315 L 16.4783,-51.5315 L 16.574,-51.2551
 L 16.691,-51.0023 L 16.8293,-50.773 L 16.9889,-50.5673 L 17.1688,-50.3855 L 17.3681,-50.2279 L 17.5869,-50.0945
 L 17.825,-49.9854 L 18.0826,-49.9006 L 18.3596,-49.84 L 18.656,-49.8036 L 18.9718,-49.7915 z
M 17.3443,-53.3774 L 17.3584,-53.5794 L 17.3844,-53.7702 L 17.4224,-53.95 L 17.4724,-54.1186 L 17.5343,-54.2761
 L 17.6082,-54.4225 L 17.694,-54.5579 L 17.7918,-54.6821 L 17.9001,-54.7933 L 18.0178,-54.8898 L 18.1446,-54.9713
 L 18.2807,-55.0381 L 18.4261,-55.09 L 18.5806,-55.1271 L 18.7445,-55.1494 L 18.9175,-55.1568 L 19.0953,-55.1501
 L 19.2623,-55.1302 L 19.4187,-55.0969 L 19.5644,-55.0503 L 19.6994,-54.9904 L 19.8238,-54.9173 L 19.9374,-54.8307
 L 20.0404,-54.7309 L 20.1332,-54.6166 L 20.2164,-54.4867 L 20.2899,-54.341 L 20.3537,-54.1796 L 20.4079,-54.0026
 L 20.4524,-53.8099 L 20.4872,-53.6015 L 20.5124,-53.3774 z
M 32.6893,-49.8132 L 33.093,-49.8783 L 33.4549,-49.9868 L 33.7749,-50.1387 L 34.053,-50.334 L 34.2893,-50.5727
 L 34.4836,-50.8548 L 34.6361,-51.1803 L 33.779,-51.4244 L 33.7412,-51.3289 L 33.6957,-51.2376 L 33.6425,-51.1505
 L 33.5816,-51.0677 L 33.513,-50.9891 L 33.4367,-50.9148 L 33.3526,-50.8447 L 33.2608,-50.7788 L 33.1613,-50.719
 L 33.0539,-50.6672 L 32.9386,-50.6234 L 32.8154,-50.5876 L 32.6843,-50.5597 L 32.5453,-50.5398 L 32.3985,-50.5278
 L 32.2437,-50.5238 L 32.049,-50.5324 L 31.8663,-50.5581 L 31.6957,-50.6009 L 31.5371,-50.6608 L 31.3905,-50.7379
 L 31.256,-50.832 L 31.1335,-50.9433 L 31.023,-51.0717 L 30.9251,-51.216 L 30.8403,-51.3746 L 30.7685,-51.5476
 L 30.7097,-51.735 L 30.6641,-51.9368 L 30.6314,-52.1531 L 30.6118,-52.3837 L 30.6053,-52.6288 L 34.7935,-52.6288
 L 34.7935,-52.7589 L 34.7531,-53.4901 L 34.6317,-54.1237 L 34.4296,-54.6598 L 34.1465,-55.0985 L 33.7826,-55.4397
 L 33.3379,-55.6833 L 32.8122,-55.8296 L 32.2057,-55.8783 L 31.8988,-55.8662 L 31.6102,-55.8298 L 31.3397,-55.7692
 L 31.0875,-55.6844 L 30.8535,-55.5753 L 30.6377,-55.4419 L 30.4402,-55.2844 L 30.2608,-55.1025 L 30.1013,-54.898
 L 29.963,-54.6723 L 29.846,-54.4254 L 29.7502,-54.1572 L 29.6758,-53.8679 L 29.6226,-53.5574 L 29.5907,-53.2258
 L 29.58,-52.8729 L 29.5907,-52.5022 L 29.6226,-52.1551 L 29.6758,-51.8315 L 29.7502,-51.5315 L 29.846,-51.2551
 L 29.963,-51.0023 L 30.1013,-50.773 L 30.2608,-50.5673 L 30.4408,-50.3855 L 30.6401,-50.2279 L 30.8588,-50.0945
 L 31.097,-49.9854 L 31.3546,-49.9006 L 31.6315,-49.84 L 31.9279,-49.8036 L 32.2437,-49.7915 z
M 30.6162,-53.3774 L 30.6303,-53.5794 L 30.6564,-53.7702 L 30.6944,-53.95 L 30.7444,-54.1186 L 30.8063,-54.2761
 L 30.8801,-54.4225 L 30.966,-54.5579 L 31.0637,-54.6821 L 31.1721,-54.7933 L 31.2897,-54.8898 L 31.4166,-54.9713
 L 31.5527,-55.0381 L 31.698,-55.09 L 31.8526,-55.1271 L 32.0164,-55.1494 L 32.1895,-55.1568 L 32.3672,-55.1501
 L 32.5343,-55.1302 L 32.6907,-55.0969 L 32.8364,-55.0503 L 32.9714,-54.9904 L 33.0957,-54.9173 L 33.2094,-54.8307
 L 33.3124,-54.7309 L 33.4052,-54.6166 L 33.4883,-54.4867 L 33.5618,-54.341 L 33.6257,-54.1796 L 33.6798,-54.0026
 L 33.7243,-53.8099 L 33.7592,-53.6015 L 33.7844,-53.3774 z
M 36.298,-47.5979 L 36.414,-47.6085 L 36.5268,-47.6261 L 36.6366,-47.6507 L 36.7432,-47.6823 L 36.8466,-47.721
 L 36.9469,-47.7668 L 37.0441,-47.8195 L 37.1386,-47.8794 L 37.2311,-47.9467 L 37.3214,-48.0212 L 37.4096,-48.103
 L 37.4957,-48.192 L 37.5797,-48.2884 L 37.6615,-48.3921 L 37.7412,-48.503 L 37.8206,-48.6251 L 37.9016,-48.7623
 L 37.9841,-48.9144 L 38.0681,-49.0815 L 38.1536,-49.2636 L 38.2407,-49.4607 L 38.3293,-49.6729 L 38.4194,-49.9
 L 40.6762,-55.7698 L 39.6454,-55.7698 L 38.3597,-52.032 L 37.9799,-50.9633 L 37.9729,-50.9892 L 37.9599,-51.0318
 L 37.941,-51.0909 L 37.9162,-51.1667 L 37.8854,-51.2591 L 37.8487,-51.3681 L 37.8061,-51.4938 L 37.7575,-51.636
 L 37.7086,-51.7788 L 37.665,-51.906 L 37.6266,-52.0178 L 37.5934,-52.114 L 37.5655,-52.1948 L 37.5429,-52.26
 L 37.5255,-52.3097 L 37.5134,-52.3439 L 37.4482,-52.5257 L 36.2114,-55.7698 L 35.1698,-55.7698 L 37.4971,-49.9271
 L 37.4049,-49.6938 L 37.266,-49.3798 L 37.1153,-49.1076 L 36.9527,-48.8773 L 36.7783,-48.6888 L 36.592,-48.5423
 L 36.3938,-48.4376 L 36.1838,-48.3748 L 35.9619,-48.3538 L 35.9001,-48.3544 L 35.8398,-48.3559 L 35.7808,-48.3584
 L 35.7231,-48.362 L 35.6668,-48.3666 L 35.6119,-48.3722 L 35.5583,-48.3788 L 35.5061,-48.3864 L 35.5061,-47.6541
 L 35.5759,-47.6401 L 35.6499,-47.628 L 35.7279,-47.6177 L 35.8099,-47.6093 L 35.896,-47.6028 L 35.9862,-47.5981
 L 36.0805,-47.5953 L 36.1788,-47.5944 z
M 9.71976,-55.7698 L 8.74319,-55.7698 L 8.74319,-49.9 L 9.71976,-49.9 z
M 19.8621,-42.315 L 17.8684,-42.315 L 17.8903,-42.3627 L 17.9155,-42.4109 L 17.9439,-42.4595 L 17.9755,-42.5086
 L 18.0103,-42.5582 L 18.0484,-42.6082 L 18.0897,-42.6587 L 18.1342,-42.7097 L 18.1823,-42.7616 L 18.2344,-42.8152
 L 18.2905,-42.8703 L 18.3505,-42.927 L 18.4146,-42.9853 L 18.4826,-43.0451 L 18.5546,-43.1065 L 18.6306,-43.1694
 L 18.7666,-43.2809 L 18.8912,-43.3849 L 19.0043,-43.4813 L 19.106,-43.5702 L 19.1962,-43.6515 L 19.275,-43.7253
 L 19.3423,-43.7916 L 19.3982,-43.8503 L 19.4469,-43.9052 L 19.4924,-43.9601 L 19.5349,-44.0151 L 19.5742,-44.07
 L 19.6105,-44.1249 L 19.6436,-44.1798 L 19.6737,-44.2348 L 19.7007,-44.2897 L 19.7245,-44.3447 L 19.7452,-44.3997
 L 19.7626,-44.4549 L 19.777,-44.5101 L 19.7881,-44.5654 L 19.796,-44.6208 L 19.8008,-44.6763 L 19.8024,-44.7318
 L 19.7975,-44.8537 L 19.783,-44.9684 L 19.7587,-45.076 L 19.7247,-45.1764 L 19.6811,-45.2696 L 19.6277,-45.3556
 L 19.5646,-45.4345 L 19.4918,-45.5063 L 19.41,-45.5702 L 19.3198,-45.6255 L 19.2213,-45.6724 L 19.1144,-45.7107
 L 18.9992,-45.7405 L 18.8756,-45.7618 L 18.7437,-45.7746 L 18.6035,-45.7789 L 18.4749,-45.7746 L 18.3523,-45.7619
 L 18.2357,-45.7407 L 18.125,-45.711 L 18.0204,-45.6729 L 17.9217,-45.6263 L 17.829,-45.5712 L 17.7422,-45.5076
 L 17.6629,-45.4369 L 17.5923,-45.3603 L 17.5305,-45.2778 L 17.4774,-45.1896 L 17.4332,-45.0954 L 17.3977,-44.9955
 L 17.3709,-44.8896 L 17.353,-44.7779 L 17.8521,-44.7318 L 17.8635,-44.8063 L 17.8802,-44.8765 L 17.902,-44.9424
 L 17.9291,-45.0041 L 17.9613,-45.0615 L 17.9988,-45.1145 L 18.0415,-45.1633 L 18.0894,-45.2079 L 18.1417,-45.2476
 L 18.1973,-45.282 L 18.2564,-45.3112 L 18.319,-45.335 L 18.3849,-45.3536 L 18.4544,-45.3668 L 18.5272,-45.3748
 L 18.6035,-45.3774 L 18.6833,-45.3747 L 18.7586,-45.3666 L 18.8294,-45.353 L 18.8957,-45.334 L 18.9576,-45.3096
 L 19.0149,-45.2798 L 19.0677,-45.2445 L 19.1161,-45.2038 L 19.1593,-45.1582 L 19.1968,-45.1082 L 19.2285,-45.0538
 L 19.2545,-44.9949 L 19.2746,-44.9317 L 19.2891,-44.8641 L 19.2977,-44.792 L 19.3006,-44.7155 L 19.2989,-44.658
 L 19.2939,-44.602 L 19.2855,-44.5475 L 19.2738,-44.4945 L 19.2587,-44.443 L 19.2403,-44.3931 L 19.2185,-44.3447
 L 19.1934,-44.2978 L 19.1656,-44.252 L 19.1357,-44.2066 L 19.1037,-44.1618 L 19.0697,-44.1174 L 19.0335,-44.0736
 L 18.9953,-44.0303 L 18.955,-43.9875 L 18.9127,-43.9452 L 18.8686,-43.9032 L 18.8232,-43.8611 L 18.7766,-43.8191
 L 18.7286,-43.777 L 18.6792,-43.735 L 18.6286,-43.6929 L 18.5767,-43.6509 L 18.5234,-43.6089 L 18.4695,-43.5664
 L 18.4153,-43.523 L 18.3611,-43.4787 L 18.3068,-43.4336 L 18.2523,-43.3875 L 18.1977,-43.3406 L 18.1429,-43.2928
 L 18.0881,-43.244 L 18.0335,-43.1941 L 17.9795,-43.1428 L 17.9262,-43.0901 L 17.8735,-43.0358 L 17.8214,-42.9802
 L 17.77,-42.9231 L 17.7191,-42.8646 L 17.669,-42.8046 L 17.6201,-42.7427 L 17.5731,-42.6785 L 17.528,-42.612
 L 17.4849,-42.5432 L 17.4436,-42.472 L 17.4043,-42.3985 L 17.3668,-42.3226 L 17.3313,-42.2445 L 17.3313,-41.9
 L 19.8621,-41.9 z
M 16.8448,-42.315 L 14.8511,-42.315 L 14.873,-42.3627 L 14.8982,-42.4109 L 14.9266,-42.4595 L 14.9582,-42.5086
 L 14.993,-42.5582 L 15.0311,-42.6082 L 15.0724,-42.6587 L 15.1169,-42.7097 L 15.165,-42.7616 L 15.2171,-42.8152
 L 15.2731,-42.8703 L 15.3332,-42.927 L 15.3972,-42.9853 L 15.4653,-43.0451 L 15.5373,-43.1065 L 15.6133,-43.1694
 L 15.7493,-43.2809 L 15.8739,-43.3849 L 15.987,-43.4813 L 16.0887,-43.5702 L 16.1789,-43.6515 L 16.2577,-43.7253
 L 16.325,-43.7916 L 16.3809,-43.8503 L 16.4296,-43.9052 L 16.4751,-43.9601 L 16.5175,-44.0151 L 16.5569,-44.07
 L 16.5932,-44.1249 L 16.6263,-44.1798 L 16.6564,-44.2348 L 16.6834,-44.2897 L 16.7072,-44.3447 L 16.7279,-44.3997
 L 16.7453,-44.4549 L 16.7597,-44.5101 L 16.7708,-44.5654 L 16.7787,-44.6208 L 16.7835,-44.6763 L 16.7851,-44.7318
 L 16.7802,-44.8537 L 16.7657,-44.9684 L 16.7414,-45.076 L 16.7074,-45.1764 L 16.6638,-45.2696 L 16.6104,-45.3556
 L 16.5473,-45.4345 L 16.4745,-45.5063 L 16.3927,-45.5702 L 16.3025,-45.6255 L 16.204,-45.6724 L 16.0971,-45.7107
 L 15.9819,-45.7405 L 15.8583,-45.7618 L 15.7264,-45.7746 L 15.5862,-45.7789 L 15.4576,-45.7746 L 15.335,-45.7619
 L 15.2184,-45.7407 L 15.1077,-45.711 L 15.0031,-45.6729 L 14.9044,-45.6263 L 14.8117,-45.5712 L 14.7249,-45.5076
 L 14.6456,-45.4369 L 14.575,-45.3603 L 14.5132,-45.2778 L 14.4601,-45.1896 L 14.4158,-45.0954 L 14.3804,-44.9955
 L 14.3536,-44.8896 L 14.3357,-44.7779 L 14.8348,-44.7318 L 14.8462,-44.8063 L 14.8629,-44.8765 L 14.8847,-44.9424
 L 14.9118,-45.0041 L 14.944,-45.0615 L 14.9815,-45.1145 L 15.0242,-45.1633 L 15.0721,-45.2079 L 15.1244,-45.2476
 L 15.18,-45.282 L 15.2391,-45.3112 L 15.3017,-45.335 L 15.3676,-45.3536 L 15.437,-45.3668 L 15.5099,-45.3748
 L 15.5862,-45.3774 L 15.666,-45.3747 L 15.7413,-45.3666 L 15.8121,-45.353 L 15.8784,-45.334 L 15.9403,-45.3096
 L 15.9976,-45.2798 L 16.0504,-45.2445 L 16.0988,-45.2038 L 16.142,-45.1582 L 16.1795,-45.1082 L 16.2112,-45.0538
 L 16.2372,-44.9949 L 16.2573,-44.9317 L 16.2718,-44.8641 L 16.2804,-44.792 L 16.2833,-44.7155 L 16.2816,-44.658
 L 16.2766,-44.602 L 16.2682,-44.5475 L 16.2565,-44.4945 L 16.2414,-44.443 L 16.223,-44.3931 L 16.2012,-44.3447
 L 16.1761,-44.2978 L 16.1483,-44.252 L 16.1184,-44.2066 L 16.0864,-44.1618 L 16.0524,-44.1174 L 16.0162,-44.0736
 L 15.978,-44.0303 L 15.9377,-43.9875 L 15.8954,-43.9452 L 15.8513,-43.9032 L 15.8059,-43.8611 L 15.7592,-43.8191
 L 15.7113,-43.777 L 15.6619,-43.735 L 15.6113,-43.6929 L 15.5594,-43.6509 L 15.5061,-43.6089 L 15.4521,-43.5664
 L 15.398,-43.523 L 15.3438,-43.4787 L 15.2895,-43.4336 L 15.235,-43.3875 L 15.1804,-43.3406 L 15.1256,-43.2928
 L 15.0708,-43.244 L 15.0162,-43.1941 L 14.9622,-43.1428 L 14.9089,-43.0901 L 14.8562,-43.0358 L 14.8041,-42.9802
 L 14.7527,-42.9231 L 14.7018,-42.8646 L 14.6517,-42.8046 L 14.6028,-42.7427 L 14.5558,-42.6785 L 14.5107,-42.612
 L 14.4676,-42.5432 L 14.4263,-42.472 L 14.387,-42.3985 L 14.3495,-42.3226 L 14.314,-42.2445 L 14.314,-41.9
 L 16.8448,-41.9 z
M 12.7151,-41.8536 L 12.8648,-41.8773 L 13.0044,-41.9167 L 13.1341,-41.9719 L 13.2536,-42.0428 L 13.3632,-42.1295
 L 13.4627,-42.232 L 13.5521,-42.3503 L 13.6313,-42.4835 L 13.6998,-42.6308 L 13.7579,-42.7924 L 13.8054,-42.968
 L 13.8423,-43.1579 L 13.8687,-43.3619 L 13.8845,-43.58 L 13.8898,-43.8123 L 13.8848,-44.0483 L 13.8697,-44.2694
 L 13.8446,-44.4755 L 13.8095,-44.6667 L 13.7643,-44.8431 L 13.709,-45.0044 L 13.6437,-45.1509 L 13.5684,-45.2825
 L 13.4825,-45.3988 L 13.3856,-45.4996 L 13.2775,-45.585 L 13.1585,-45.6548 L 13.0284,-45.7091 L 12.8871,-45.7478
 L 12.7349,-45.7711 L 12.5716,-45.7789 L 12.4038,-45.7712 L 12.2477,-45.7482 L 12.1032,-45.7098 L 11.9704,-45.6561
 L 11.8493,-45.5871 L 11.7398,-45.5027 L 11.6419,-45.403 L 11.5557,-45.2879 L 11.4804,-45.1575 L 11.4151,-45.0116
 L 11.3599,-44.8503 L 11.3147,-44.6735 L 11.2795,-44.4814 L 11.2544,-44.2738 L 11.2393,-44.0508 L 11.2343,-43.8123
 L 11.2395,-43.5788 L 11.255,-43.3596 L 11.2808,-43.1549 L 11.317,-42.9646 L 11.3636,-42.7887 L 11.4204,-42.6273
 L 11.4877,-42.4802 L 11.5652,-42.3475 L 11.6531,-42.2299 L 11.7512,-42.128 L 11.8596,-42.0418 L 11.9782,-41.9712
 L 12.1071,-41.9163 L 12.2462,-41.8771 L 12.3956,-41.8536 L 12.5553,-41.8458 z
M 12.4559,-42.2504 L 12.3584,-42.268 L 12.2682,-42.2975 L 12.1854,-42.3387 L 12.1098,-42.3918 L 12.0417,-42.4566
 L 11.9809,-42.5331 L 11.9273,-42.6215 L 11.8806,-42.7226 L 11.8401,-42.8373 L 11.8058,-42.9657 L 11.7778,-43.1077
 L 11.756,-43.2634 L 11.7404,-43.4327 L 11.7311,-43.6157 L 11.728,-43.8123 L 11.731,-44.0145 L 11.7403,-44.2019
 L 11.7556,-44.3746 L 11.7771,-44.5325 L 11.8048,-44.6756 L 11.8386,-44.804 L 11.8785,-44.9177 L 11.9246,-45.0166
 L 11.9778,-45.1024 L 12.0388,-45.1768 L 12.1078,-45.2398 L 12.1847,-45.2913 L 12.2695,-45.3313 L 12.3623,-45.3599
 L 12.463,-45.3771 L 12.5716,-45.3828 L 12.6776,-45.377 L 12.7758,-45.3596 L 12.8662,-45.3306 L 12.9489,-45.2899
 L 13.0239,-45.2377 L 13.0911,-45.1738 L 13.1505,-45.0983 L 13.2022,-45.0112 L 13.247,-44.9112 L 13.2859,-44.797
 L 13.3188,-44.6684 L 13.3456,-44.5257 L 13.3666,-44.3687 L 13.3815,-44.1975 L 13.3905,-44.012 L 13.3935,-43.8123
 L 13.3903,-43.6194 L 13.3809,-43.4393 L 13.3652,-43.2722 L 13.3433,-43.1179 L 13.315,-42.9765 L 13.2805,-42.848
 L 13.2398,-42.7324 L 13.1927,-42.6296 L 13.1389,-42.5394 L 13.078,-42.4611 L 13.0098,-42.3949 L 12.9344,-42.3408
 L 12.8518,-42.2986 L 12.7619,-42.2685 L 12.6649,-42.2505 L 12.5607,-42.2445 z
M 10.8102,-42.315 L 8.81647,-42.315 L 8.83842,-42.3627 L 8.8636,-42.4109 L 8.89198,-42.4595 L 8.9236,-42.5086
 L 8.95844,-42.5582 L 8.99649,-42.6082 L 9.03777,-42.6587 L 9.08228,-42.7097 L 9.13037,-42.7616 L 9.18246,-42.8152
 L 9.23854,-42.8703 L 9.2986,-42.927 L 9.36264,-42.9853 L 9.43066,-43.0451 L 9.50267,-43.1065 L 9.57867,-43.1694
 L 9.71468,-43.2809 L 9.83925,-43.3849 L 9.95236,-43.4813 L 10.054,-43.5702 L 10.1443,-43.6515 L 10.2231,-43.7253
 L 10.2904,-43.7916 L 10.3463,-43.8503 L 10.3949,-43.9052 L 10.4405,-43.9601 L 10.4829,-44.0151 L 10.5223,-44.07
 L 10.5585,-44.1249 L 10.5917,-44.1798 L 10.6218,-44.2348 L 10.6488,-44.2897 L 10.6726,-44.3447 L 10.6933,-44.3997
 L 10.7107,-44.4549 L 10.725,-44.5101 L 10.7362,-44.5654 L 10.7441,-44.6208 L 10.7489,-44.6763 L 10.7505,-44.7318
 L 10.7456,-44.8537 L 10.7311,-44.9684 L 10.7068,-45.076 L 10.6728,-45.1764 L 10.6292,-45.2696 L 10.5758,-45.3556
 L 10.5127,-45.4345 L 10.4399,-45.5063 L 10.3581,-45.5702 L 10.2679,-45.6255 L 10.1694,-45.6724 L 10.0625,-45.7107
 L 9.9473,-45.7405 L 9.82373,-45.7618 L 9.69182,-45.7746 L 9.55156,-45.7789 L 9.42297,-45.7746 L 9.30038,-45.7619
 L 9.18376,-45.7407 L 9.07312,-45.711 L 8.96846,-45.6729 L 8.86977,-45.6263 L 8.77705,-45.5712 L 8.69031,-45.5076
 L 8.61095,-45.4369 L 8.54036,-45.3603 L 8.47855,-45.2778 L 8.42551,-45.1896 L 8.38124,-45.0954 L 8.34573,-44.9955
 L 8.31902,-44.8896 L 8.30107,-44.7779 L 8.80019,-44.7318 L 8.81161,-44.8063 L 8.82825,-44.8765 L 8.85008,-44.9424
 L 8.87714,-45.0041 L 8.90941,-45.0615 L 8.9469,-45.1145 L 8.98959,-45.1633 L 9.03751,-45.2079 L 9.08975,-45.2476
 L 9.14542,-45.282 L 9.20453,-45.3112 L 9.26706,-45.335 L 9.33304,-45.3536 L 9.40244,-45.3668 L 9.47528,-45.3748
 L 9.55156,-45.3774 L 9.63136,-45.3747 L 9.70667,-45.3666 L 9.77748,-45.353 L 9.84381,-45.334 L 9.90564,-45.3096
 L 9.96298,-45.2798 L 10.0158,-45.2445 L 10.0642,-45.2038 L 10.1074,-45.1582 L 10.1449,-45.1082 L 10.1766,-45.0538
 L 10.2025,-44.9949 L 10.2227,-44.9317 L 10.2371,-44.8641 L 10.2458,-44.792 L 10.2487,-44.7155 L 10.247,-44.658
 L 10.242,-44.602 L 10.2336,-44.5475 L 10.2219,-44.4945 L 10.2068,-44.443 L 10.1884,-44.3931 L 10.1666,-44.3447
 L 10.1415,-44.2978 L 10.1137,-44.252 L 10.0838,-44.2066 L 10.0518,-44.1618 L 10.0177,-44.1174 L 9.98161,-44.0736
 L 9.94341,-44.0303 L 9.90311,-43.9875 L 9.86075,-43.9452 L 9.8167,-43.9032 L 9.77133,-43.8611 L 9.72464,-43.8191
 L 9.67664,-43.777 L 9.62733,-43.735 L 9.57671,-43.6929 L 9.52477,-43.6509 L 9.47151,-43.6089 L 9.41754,-43.5664
 L 9.36343,-43.523 L 9.3092,-43.4787 L 9.25485,-43.4336 L 9.20036,-43.3875 L 9.14575,-43.3406 L 9.09102,-43.2928
 L 9.03615,-43.244 L 8.98155,-43.1941 L 8.92758,-43.1428 L 8.87424,-43.0901 L 8.82155,-43.0358 L 8.76947,-42.9802
 L 8.71803,-42.9231 L 8.66724,-42.8646 L 8.61707,-42.8046 L 8.56819,-42.7427 L 8.52121,-42.6785 L 8.47614,-42.612
 L 8.43297,-42.5432 L 8.39172,-42.472 L 8.35237,-42.3985 L 8.31493,-42.3226 L 8.27939,-42.2445 L 8.27939,-41.9
 L 10.8102,-41.9 z
M 10.2998,-33.8495 L 10.4384,-33.8609 L 10.5721,-33.8797 L 10.701,-33.9061 L 10.825,-33.94 L 10.9442,-33.9815
 L 11.0586,-34.0306 L 11.1682,-34.0871 L 11.2722,-34.1508 L 11.37,-34.2209 L 11.4616,-34.2976 L 11.5469,-34.3808
 L 11.626,-34.4705 L 11.6989,-34.5667 L 11.7655,-34.6695 L 11.826,-34.7788 L 11.8797,-34.8937 L 11.9262,-35.0133
 L 11.9657,-35.1375 L 11.9979,-35.2664 L 12.0229,-35.4 L 12.0409,-35.5382 L 12.0516,-35.681 L 12.0552,-35.8286
 L 12.0517,-35.9766 L 12.041,-36.1197 L 12.0233,-36.2577 L 11.9986,-36.3907 L 11.9667,-36.5188 L 11.9278,-36.6418
 L 11.8818,-36.7598 L 11.8287,-36.8729 L 11.7689,-36.9801 L 11.7028,-37.0808 L 11.6304,-37.1749 L 11.5517,-37.2625
 L 11.4666,-37.3434 L 11.3753,-37.4178 L 11.2776,-37.4857 L 11.1736,-37.547 L 11.064,-37.6013 L 10.9496,-37.6484
 L 10.8304,-37.6883 L 10.7064,-37.7209 L 10.5775,-37.7462 L 10.4438,-37.7644 L 10.3053,-37.7752 L 10.1619,-37.7789
 L 9.94423,-37.7708 L 9.73888,-37.7466 L 9.54582,-37.7062 L 9.36505,-37.6497 L 9.19658,-37.577 L 9.04039,-37.4882
 L 8.89651,-37.3832 L 8.76491,-37.2621 L 8.64731,-37.1267 L 8.54538,-36.9787 L 8.45912,-36.8183 L 8.38857,-36.6454
 L 8.33368,-36.4599 L 8.29448,-36.262 L 8.27095,-36.0515 L 8.26311,-35.8286 L 8.26663,-35.6804 L 8.27718,-35.5369
 L 8.29477,-35.3981 L 8.3194,-35.264 L 8.35104,-35.1346 L 8.38974,-35.01 L 8.43547,-34.89 L 8.48824,-34.7747
 L 8.54768,-34.6652 L 8.61343,-34.5623 L 8.68552,-34.466 L 8.7639,-34.3764 L 8.8486,-34.2934 L 8.93962,-34.2171
 L 9.03696,-34.1474 L 9.14059,-34.0844 L 9.24992,-34.0285 L 9.3643,-33.98 L 9.48372,-33.939 L 9.60817,-33.9054
 L 9.73767,-33.8793 L 9.87222,-33.8607 L 10.0118,-33.8495 L 10.1564,-33.8458 z
M 10.0001,-34.2728 L 9.85254,-34.2925 L 9.71376,-34.3255 L 9.58374,-34.3716 L 9.46251,-34.4309 L 9.35004,-34.5034
 L 9.24635,-34.5891 L 9.15143,-34.6879 L 9.06656,-34.798 L 8.99301,-34.9174 L 8.93077,-35.0461 L 8.87984,-35.184
 L 8.84024,-35.3312 L 8.81195,-35.4877 L 8.79497,-35.6535 L 8.78931,-35.8286 L 8.79491,-36.0046 L 8.81169,-36.1705
 L 8.83966,-36.3264 L 8.87883,-36.4721 L 8.92917,-36.6078 L 8.99071,-36.7334 L 9.06343,-36.8489 L 9.14735,-36.9543
 L 9.24153,-37.0484 L 9.34505,-37.1299 L 9.45787,-37.1989 L 9.58002,-37.2553 L 9.7115,-37.2993 L 9.85229,-37.3306
 L 10.0024,-37.3494 L 10.1619,-37.3557 L 10.32,-37.3493 L 10.469,-37.3303 L 10.6087,-37.2985 L 10.7393,-37.254
 L 10.8607,-37.1968 L 10.9728,-37.1268 L 11.0758,-37.0442 L 11.1696,-36.9488 L 11.2531,-36.8423 L 11.3256,-36.7262
 L 11.3869,-36.6006 L 11.4371,-36.4653 L 11.4761,-36.3205 L 11.5039,-36.1661 L 11.5207,-36.0021 L 11.5262,-35.8286
 L 11.5207,-35.6474 L 11.5041,-35.4767 L 11.4765,-35.3166 L 11.4377,-35.1671 L 11.388,-35.0281 L 11.3271,-34.8996
 L 11.2552,-34.7817 L 11.1722,-34.6744 L 11.0789,-34.5787 L 10.976,-34.4958 L 10.8635,-34.4256 L 10.7413,-34.3682
 L 10.6095,-34.3236 L 10.4681,-34.2917 L 10.3171,-34.2726 L 10.1564,-34.2662 z
M 19.5387,-35.0175 L 21.2801,-35.0175 L 21.7168,-33.9 L 22.7179,-33.9 L 23.1573,-35.0175 L 24.8988,-35.0175
 L 25.3355,-33.9 L 25.8644,-33.9 L 24.3291,-37.7219 L 23.7405,-37.7219 L 22.2135,-33.9802 L 20.7105,-37.7219
 L 20.1218,-37.7219 L 18.5622,-33.9 L 19.0992,-33.9 z
M 19.696,-35.4217 L 20.1842,-36.6776 L 20.2164,-36.7637 L 20.2466,-36.8459 L 20.2748,-36.9241 L 20.3009,-36.9984
 L 20.325,-37.0686 L 20.347,-37.1348 L 20.367,-37.1971 L 20.385,-37.2553 L 20.4094,-37.3313 L 20.4826,-37.1061
 L 20.5016,-37.0479 L 20.5206,-36.9912 L 20.5396,-36.936 L 20.5586,-36.8824 L 20.5776,-36.8303 L 20.5965,-36.7797
 L 20.6155,-36.7306 L 20.6345,-36.683 L 21.1255,-35.4217 z
M 23.3147,-35.4217 L 23.8029,-36.6776 L 23.8351,-36.7637 L 23.8653,-36.8459 L 23.8934,-36.9241 L 23.9196,-36.9984
 L 23.9436,-37.0686 L 23.9657,-37.1348 L 23.9857,-37.1971 L 24.0036,-37.2553 L 24.0281,-37.3313 L 24.1013,-37.1061
 L 24.1203,-37.0479 L 24.1393,-36.9912 L 24.1583,-36.936 L 24.1772,-36.8824 L 24.1962,-36.8303 L 24.2152,-36.7797
 L 24.2342,-36.7306 L 24.2532,-36.683 L 24.7442,-35.4217 z
M 27.9568,-33.9044 L 28.1087,-33.9177 L 28.2515,-33.9398 L 28.3852,-33.9708 L 28.5099,-34.0107 L 28.6254,-34.0594
 L 28.7319,-34.117 L 28.8294,-34.1834 L 28.9165,-34.2578 L 28.992,-34.3393 L 29.0558,-34.4279 L 29.1081,-34.5235
 L 29.1487,-34.6263 L 29.1778,-34.736 L 29.1952,-34.8529 L 29.201,-34.9769 L 29.1971,-35.0704 L 29.1856,-35.1599
 L 29.1663,-35.2452 L 29.1393,-35.3264 L 29.1046,-35.4035 L 29.0621,-35.4765 L 29.012,-35.5454 L 28.9541,-35.6102
 L 28.8892,-35.6698 L 28.8177,-35.7234 L 28.7396,-35.7707 L 28.6551,-35.812 L 28.564,-35.847 L 28.4664,-35.876
 L 28.3623,-35.8987 L 28.2516,-35.9154 L 28.336,-35.9374 L 28.4154,-35.9642 L 28.4899,-35.9957 L 28.5595,-36.032
 L 28.6242,-36.073 L 28.6839,-36.1188 L 28.7388,-36.1693 L 28.7887,-36.2246 L 28.8332,-36.2839 L 28.8718,-36.3466
 L 28.9044,-36.4128 L 28.9311,-36.4823 L 28.9519,-36.5552 L 28.9667,-36.6315 L 28.9756,-36.7112 L 28.9786,-36.7942
 L 28.9576,-37.0117 L 28.8945,-37.2001 L 28.7894,-37.3595 L 28.6422,-37.49 L 28.453,-37.5914 L 28.2218,-37.6639
 L 27.9485,-37.7074 L 27.6332,-37.7219 L 26.2444,-37.7219 L 26.2444,-33.9 L 27.7959,-33.9 z
M 26.7625,-36.0971 L 26.7625,-37.3069 L 27.6332,-37.3069 L 27.7306,-37.3048 L 27.822,-37.2986 L 27.9076,-37.2882
 L 27.9872,-37.2737 L 28.0608,-37.255 L 28.1285,-37.2321 L 28.1903,-37.2051 L 28.2462,-37.174 L 28.2958,-37.138
 L 28.3388,-37.0965 L 28.3751,-37.0495 L 28.4049,-36.997 L 28.428,-36.939 L 28.4446,-36.8754 L 28.4545,-36.8064
 L 28.4578,-36.7318 L 28.4546,-36.6537 L 28.445,-36.5809 L 28.429,-36.5132 L 28.4066,-36.4508 L 28.3778,-36.3935
 L 28.3426,-36.3415 L 28.301,-36.2947 L 28.253,-36.2531 L 28.1985,-36.2165 L 28.1375,-36.1848 L 28.0698,-36.158
 L 27.9956,-36.1361 L 27.9149,-36.119 L 27.8275,-36.1069 L 27.7336,-36.0995 L 27.6332,-36.0971 z
M 26.7625,-34.315 L 26.7625,-35.6929 L 27.7281,-35.6929 L 27.9506,-35.6824 L 28.1434,-35.6507 L 28.3066,-35.598
 L 28.4401,-35.5241 L 28.544,-35.4291 L 28.6181,-35.313 L 28.6626,-35.1758 L 28.6775,-35.0175 L 28.6741,-34.9328
 L 28.6639,-34.8534 L 28.6469,-34.7795 L 28.6232,-34.711 L 28.5927,-34.648 L 28.5554,-34.5903 L 28.5113,-34.5381
 L 28.4605,-34.4913 L 28.4022,-34.45 L 28.3359,-34.4142 L 28.2615,-34.3839 L 28.179,-34.3591 L 28.0886,-34.3398
 L 27.99,-34.326 L 27.8834,-34.3177 L 27.7688,-34.315 z
M 15.4397,-34.3232 L 12.9849,-34.3232 L 15.3122,-37.3449 L 15.3122,-37.7219 L 12.5943,-37.7219 L 12.5943,-37.2988
 L 14.7236,-37.2988 L 12.3963,-34.2879 L 12.3963,-33.9 L 15.4397,-33.9 z
M 18.3523,-34.315 L 17.4219,-34.315 L 17.4219,-37.7219 L 16.9716,-37.7219 L 16.0684,-37.1008 L 16.0684,-36.6396
 L 16.9309,-37.2553 L 16.9309,-34.315 L 15.9572,-34.315 L 15.9572,-33.9 L 18.3523,-33.9 z
M 0.0104523,-28.8006 L 0.0207825,-28.8022 L 0.030899,-28.8049 L 0.0406647,-28.8086 L 0.0499878,-28.8134 L 0.0587769,-28.8191
 L 0.0669098,-28.8257 L 0.0743103,-28.8331 L 0.0808868,-28.8412 L 0.0865936,-28.85 L 0.0913544,-28.8593 L 0.0950928,-28.8691
 L 0.0978088,-28.8792 L 0.0994415,-28.8895 L 0.0999908,-28.9 L 0.0994415,-28.9104 L 0.0978088,-28.9208 L 0.0950928,-28.9309
 L 0.0913544,-28.9407 L 0.0865936,-28.95 L 0.0808868,-28.9588 L 0.0743103,-28.9669 L 0.0669098,-28.9743 L 0.0587769,-28.9809
 L 0.0499878,-28.9866 L 0.0406647,-28.9913 L 0.030899,-28.9951 L 0.0207825,-28.9978 L 0.0104523,-28.9994 L 0,-29
 L -0.0104523,-28.9994 L -0.0207825,-28.9978 L -0.030899,-28.9951 L -0.0406647,-28.9913 L -0.0499878,-28.9866 L -0.0587769,-28.9809
 L -0.0669098,-28.9743 L -0.0743103,-28.9669 L -0.0808868,-28.9588 L -0.0865936,-28.95 L -0.0913544,-28.9407 L -0.0950928,-28.9309
 L -0.0978088,-28.9208 L -0.0994415,-28.9104 L -0.0999908,-28.9 L -0.0994415,-28.8895 L -0.0978088,-28.8792 L -0.0950928,-28.8691
 L -0.0913544,-28.8593 L -0.0865936,-28.85 L -0.0808868,-28.8412 L -0.0743103,-28.8331 L -0.0669098,-28.8257 L -0.0587769,-28.8191
 L -0.0499878,-28.8134 L -0.0406647,-28.8086 L -0.030899,-28.8049 L -0.0207825,-28.8022 L -0.0104523,-28.8006 L 0,-28.8
 z
M 28.8599,-14.9253 L 28.3716,-14.9253 L 28.3716,-14.4588 L 28.8599,-14.4588 z
M 35.9091,-12.3647 L 36.4082,-12.7445 L 37.9354,-10.9 L 38.5782,-10.9 L 36.7337,-13.0619 L 38.3612,-14.7219
 L 37.7509,-14.7219 L 35.9091,-12.8069 L 35.9091,-14.7219 L 35.3911,-14.7219 L 35.3911,-10.9 L 35.9091,-10.9
 z
M 46.0747,-10.8566 L 46.2765,-10.8892 L 46.4575,-10.9434 L 46.6174,-11.0193 L 46.7565,-11.117 L 46.8746,-11.2363
 L 46.9718,-11.3774 L 47.048,-11.5401 L 46.6195,-11.6622 L 46.6006,-11.6144 L 46.5779,-11.5688 L 46.5513,-11.5253
 L 46.5208,-11.4838 L 46.4865,-11.4445 L 46.4483,-11.4074 L 46.4063,-11.3723 L 46.3604,-11.3394 L 46.3106,-11.3095
 L 46.2569,-11.2836 L 46.1993,-11.2617 L 46.1377,-11.2438 L 46.0721,-11.2298 L 46.0027,-11.2199 L 45.9292,-11.2139
 L 45.8519,-11.2119 L 45.7545,-11.2162 L 45.6631,-11.229 L 45.5778,-11.2504 L 45.4985,-11.2804 L 45.4252,-11.3189
 L 45.358,-11.366 L 45.2967,-11.4217 L 45.2415,-11.4859 L 45.1926,-11.558 L 45.1501,-11.6373 L 45.1142,-11.7238
 L 45.0849,-11.8175 L 45.062,-11.9184 L 45.0457,-12.0265 L 45.0359,-12.1419 L 45.0327,-12.2644 L 47.1267,-12.2644
 L 47.1267,-12.3295 L 47.1065,-12.695 L 47.0459,-13.0118 L 46.9448,-13.2799 L 46.8033,-13.4992 L 46.6213,-13.6698
 L 46.3989,-13.7917 L 46.1361,-13.8648 L 45.8329,-13.8891 L 45.6794,-13.8831 L 45.5351,-13.8649 L 45.3999,-13.8346
 L 45.2737,-13.7922 L 45.1568,-13.7376 L 45.0489,-13.671 L 44.9501,-13.5922 L 44.8604,-13.5013 L 44.7806,-13.399
 L 44.7115,-13.2861 L 44.653,-13.1627 L 44.6051,-13.0286 L 44.5679,-12.884 L 44.5413,-12.7287 L 44.5253,-12.5629
 L 44.52,-12.3864 L 44.5253,-12.2011 L 44.5413,-12.0275 L 44.5679,-11.8658 L 44.6051,-11.7158 L 44.653,-11.5776
 L 44.7115,-11.4511 L 44.7806,-11.3365 L 44.8604,-11.2336 L 44.9504,-11.1427 L 45.05,-11.0639 L 45.1594,-10.9973
 L 45.2785,-10.9427 L 45.4073,-10.9003 L 45.5458,-10.87 L 45.694,-10.8518 L 45.8519,-10.8458 z
M 45.0381,-12.6387 L 45.0452,-12.7397 L 45.0582,-12.8351 L 45.0772,-12.925 L 45.1022,-13.0093 L 45.1331,-13.088
 L 45.1701,-13.1613 L 45.213,-13.2289 L 45.2619,-13.291 L 45.316,-13.3467 L 45.3749,-13.3949 L 45.4383,-13.4357
 L 45.5063,-13.469 L 45.579,-13.495 L 45.6563,-13.5135 L 45.7382,-13.5247 L 45.8247,-13.5284 L 45.9136,-13.5251
 L 45.9971,-13.5151 L 46.0753,-13.4984 L 46.1482,-13.4752 L 46.2157,-13.4452 L 46.2779,-13.4086 L 46.3347,-13.3654
 L 46.3862,-13.3155 L 46.4326,-13.2583 L 46.4742,-13.1933 L 46.5109,-13.1205 L 46.5428,-13.0398 L 46.5699,-12.9513
 L 46.5922,-12.8549 L 46.6096,-12.7507 L 46.6222,-12.6387 z
M 40.3447,-10.8566 L 40.5465,-10.8892 L 40.7274,-10.9434 L 40.8875,-11.0193 L 41.0265,-11.117 L 41.1446,-11.2363
 L 41.2418,-11.3774 L 41.3181,-11.5401 L 40.8895,-11.6622 L 40.8706,-11.6144 L 40.8479,-11.5688 L 40.8213,-11.5253
 L 40.7908,-11.4838 L 40.7565,-11.4445 L 40.7183,-11.4074 L 40.6763,-11.3723 L 40.6304,-11.3394 L 40.5806,-11.3095
 L 40.5269,-11.2836 L 40.4693,-11.2617 L 40.4077,-11.2438 L 40.3421,-11.2298 L 40.2726,-11.2199 L 40.1992,-11.2139
 L 40.1219,-11.2119 L 40.0245,-11.2162 L 39.9332,-11.229 L 39.8478,-11.2504 L 39.7685,-11.2804 L 39.6952,-11.3189
 L 39.628,-11.366 L 39.5667,-11.4217 L 39.5115,-11.4859 L 39.4626,-11.558 L 39.4201,-11.6373 L 39.3842,-11.7238
 L 39.3549,-11.8175 L 39.332,-11.9184 L 39.3157,-12.0265 L 39.3059,-12.1419 L 39.3027,-12.2644 L 41.3967,-12.2644
 L 41.3967,-12.3295 L 41.3765,-12.695 L 41.3159,-13.0118 L 41.2148,-13.2799 L 41.0733,-13.4992 L 40.8913,-13.6698
 L 40.6689,-13.7917 L 40.4061,-13.8648 L 40.1029,-13.8891 L 39.9494,-13.8831 L 39.8051,-13.8649 L 39.6699,-13.8346
 L 39.5437,-13.7922 L 39.4267,-13.7376 L 39.3189,-13.671 L 39.2201,-13.5922 L 39.1304,-13.5013 L 39.0506,-13.399
 L 38.9815,-13.2861 L 38.923,-13.1627 L 38.8751,-13.0286 L 38.8379,-12.884 L 38.8113,-12.7287 L 38.7953,-12.5629
 L 38.79,-12.3864 L 38.7953,-12.2011 L 38.8113,-12.0275 L 38.8379,-11.8658 L 38.8751,-11.7158 L 38.923,-11.5776
 L 38.9815,-11.4511 L 39.0506,-11.3365 L 39.1304,-11.2336 L 39.2204,-11.1427 L 39.3201,-11.0639 L 39.4294,-10.9973
 L 39.5485,-10.9427 L 39.6773,-10.9003 L 39.8158,-10.87 L 39.964,-10.8518 L 40.1219,-10.8458 z
M 39.3081,-12.6387 L 39.3152,-12.7397 L 39.3282,-12.8351 L 39.3472,-12.925 L 39.3722,-13.0093 L 39.4031,-13.088
 L 39.4401,-13.1613 L 39.483,-13.2289 L 39.5319,-13.291 L 39.586,-13.3467 L 39.6449,-13.3949 L 39.7083,-13.4357
 L 39.7763,-13.469 L 39.849,-13.495 L 39.9263,-13.5135 L 40.0082,-13.5247 L 40.0947,-13.5284 L 40.1836,-13.5251
 L 40.2671,-13.5151 L 40.3453,-13.4984 L 40.4182,-13.4752 L 40.4857,-13.4452 L 40.5479,-13.4086 L 40.6047,-13.3654
 L 40.6562,-13.3155 L 40.7026,-13.2583 L 40.7442,-13.1933 L 40.7809,-13.1205 L 40.8128,-13.0398 L 40.8399,-12.9513
 L 40.8622,-12.8549 L 40.8796,-12.7507 L 40.8922,-12.6387 z
M 33.7087,-10.8566 L 33.9106,-10.8892 L 34.0915,-10.9434 L 34.2515,-11.0193 L 34.3905,-11.117 L 34.5087,-11.2363
 L 34.6058,-11.3774 L 34.6821,-11.5401 L 34.2535,-11.6622 L 34.2346,-11.6144 L 34.2119,-11.5688 L 34.1853,-11.5253
 L 34.1548,-11.4838 L 34.1205,-11.4445 L 34.0824,-11.4074 L 34.0403,-11.3723 L 33.9944,-11.3394 L 33.9447,-11.3095
 L 33.891,-11.2836 L 33.8333,-11.2617 L 33.7717,-11.2438 L 33.7062,-11.2298 L 33.6367,-11.2199 L 33.5632,-11.2139
 L 33.4859,-11.2119 L 33.3885,-11.2162 L 33.2972,-11.229 L 33.2119,-11.2504 L 33.1326,-11.2804 L 33.0593,-11.3189
 L 32.992,-11.366 L 32.9308,-11.4217 L 32.8755,-11.4859 L 32.8266,-11.558 L 32.7841,-11.6373 L 32.7483,-11.7238
 L 32.7189,-11.8175 L 32.696,-11.9184 L 32.6797,-12.0265 L 32.6699,-12.1419 L 32.6667,-12.2644 L 34.7608,-12.2644
 L 34.7608,-12.3295 L 34.7405,-12.695 L 34.6799,-13.0118 L 34.5788,-13.2799 L 34.4373,-13.4992 L 34.2553,-13.6698
 L 34.033,-13.7917 L 33.7701,-13.8648 L 33.4669,-13.8891 L 33.3134,-13.8831 L 33.1691,-13.8649 L 33.0339,-13.8346
 L 32.9078,-13.7922 L 32.7908,-13.7376 L 32.6829,-13.671 L 32.5841,-13.5922 L 32.4944,-13.5013 L 32.4147,-13.399
 L 32.3455,-13.2861 L 32.287,-13.1627 L 32.2391,-13.0286 L 32.2019,-12.884 L 32.1753,-12.7287 L 32.1594,-12.5629
 L 32.154,-12.3864 L 32.1594,-12.2011 L 32.1753,-12.0275 L 32.2019,-11.8658 L 32.2391,-11.7158 L 32.287,-11.5776
 L 32.3455,-11.4511 L 32.4147,-11.3365 L 32.4944,-11.2336 L 32.5844,-11.1427 L 32.6841,-11.0639 L 32.7934,-10.9973
 L 32.9125,-10.9427 L 33.0413,-10.9003 L 33.1798,-10.87 L 33.328,-10.8518 L 33.4859,-10.8458 z
M 32.6721,-12.6387 L 32.6792,-12.7397 L 32.6922,-12.8351 L 32.7112,-12.925 L 32.7362,-13.0093 L 32.7672,-13.088
 L 32.8041,-13.1613 L 32.847,-13.2289 L 32.8959,-13.291 L 32.9501,-13.3467 L 33.0089,-13.3949 L 33.0723,-13.4357
 L 33.1404,-13.469 L 33.213,-13.495 L 33.2903,-13.5135 L 33.3722,-13.5247 L 33.4588,-13.5284 L 33.5476,-13.5251
 L 33.6312,-13.5151 L 33.7094,-13.4984 L 33.7822,-13.4752 L 33.8497,-13.4452 L 33.9119,-13.4086 L 33.9687,-13.3654
 L 34.0202,-13.3155 L 34.0666,-13.2583 L 34.1082,-13.1933 L 34.1449,-13.1205 L 34.1769,-13.0398 L 34.2039,-12.9513
 L 34.2262,-12.8549 L 34.2436,-12.7507 L 34.2562,-12.6387 z
M 30.8194,-10.8497 L 30.9285,-10.8615 L 31.0324,-10.8812 L 31.1312,-10.9088 L 31.225,-10.9443 L 31.3136,-10.9876
 L 31.3972,-11.0389 L 31.4757,-11.098 L 31.5478,-11.1637 L 31.6122,-11.2348 L 31.6688,-11.3112 L 31.7178,-11.393
 L 31.759,-11.4801 L 31.7926,-11.5725 L 31.8184,-11.6703 L 31.8365,-11.7734 L 31.3428,-11.8059 L 31.3305,-11.7351
 L 31.3141,-11.669 L 31.2934,-11.6076 L 31.2685,-11.551 L 31.2395,-11.4991 L 31.2062,-11.452 L 31.1688,-11.4096
 L 31.1272,-11.3719 L 31.0821,-11.3389 L 31.0343,-11.3102 L 30.9839,-11.286 L 30.9308,-11.2662 L 30.8751,-11.2507
 L 30.8167,-11.2397 L 30.7556,-11.2331 L 30.6918,-11.2309 L 30.6018,-11.2353 L 30.5177,-11.2485 L 30.4394,-11.2706
 L 30.367,-11.3014 L 30.3004,-11.3411 L 30.2396,-11.3896 L 30.1848,-11.4469 L 30.1357,-11.513 L 30.0925,-11.5883
 L 30.055,-11.673 L 30.0233,-11.7673 L 29.9974,-11.8711 L 29.9772,-11.9843 L 29.9628,-12.1071 L 29.9541,-12.2393
 L 29.9513,-12.381 L 29.954,-12.5281 L 29.9621,-12.6641 L 29.9757,-12.7892 L 29.9947,-12.9032 L 30.0191,-13.0061
 L 30.0489,-13.0981 L 30.0842,-13.1791 L 30.1249,-13.249 L 30.1716,-13.3094 L 30.2251,-13.3617 L 30.2852,-13.406
 L 30.3521,-13.4423 L 30.4256,-13.4705 L 30.5058,-13.4906 L 30.5928,-13.5027 L 30.6864,-13.5067 L 30.7556,-13.5045
 L 30.8206,-13.4977 L 30.8817,-13.4865 L 30.9386,-13.4708 L 30.9915,-13.4505 L 31.0403,-13.4258 L 31.0851,-13.3966
 L 31.1258,-13.3629 L 31.1626,-13.3254 L 31.1958,-13.2848 L 31.2254,-13.241 L 31.2513,-13.1941 L 31.2735,-13.144
 L 31.2921,-13.0909 L 31.3071,-13.0345 L 31.3184,-12.9751 L 31.8202,-13.013 L 31.7977,-13.1127 L 31.7684,-13.2068
 L 31.7321,-13.2954 L 31.689,-13.3785 L 31.6389,-13.4561 L 31.5819,-13.5282 L 31.518,-13.5948 L 31.4472,-13.6559
 L 31.3706,-13.7105 L 31.2891,-13.7579 L 31.2029,-13.798 L 31.1119,-13.8308 L 31.0161,-13.8563 L 30.9155,-13.8746
 L 30.8101,-13.8855 L 30.7,-13.8891 L 30.5524,-13.8831 L 30.4138,-13.8648 L 30.2839,-13.8344 L 30.1629,-13.7918
 L 30.0506,-13.7371 L 29.9472,-13.6702 L 29.8526,-13.5911 L 29.7668,-13.4999 L 29.6905,-13.3971 L 29.6244,-13.2833
 L 29.5685,-13.1586 L 29.5227,-13.0228 L 29.4871,-12.8761 L 29.4617,-12.7184 L 29.4464,-12.5498 L 29.4413,-12.3701
 L 29.4464,-12.1892 L 29.4616,-12.0195 L 29.4869,-11.8609 L 29.5224,-11.7134 L 29.5679,-11.5771 L 29.6237,-11.4519
 L 29.6895,-11.3379 L 29.7655,-11.235 L 29.8511,-11.1438 L 29.9458,-11.0647 L 30.0496,-10.9978 L 30.1625,-10.9431
 L 30.2846,-10.9005 L 30.4157,-10.8701 L 30.556,-10.8518 L 30.7053,-10.8458 z
M 48.1748,-12.4298 L 48.1773,-12.5484 L 48.1848,-12.6598 L 48.1973,-12.7642 L 48.2148,-12.8615 L 48.2373,-12.9517
 L 48.2648,-13.0348 L 48.2973,-13.1109 L 48.3348,-13.1798 L 48.3771,-13.2412 L 48.4238,-13.2943 L 48.4751,-13.3393
 L 48.5308,-13.3761 L 48.591,-13.4048 L 48.6557,-13.4252 L 48.7249,-13.4375 L 48.7986,-13.4416 L 48.8383,-13.4412
 L 48.8759,-13.4399 L 48.9115,-13.4378 L 48.9451,-13.4348 L 48.9766,-13.431 L 49.0061,-13.4263 L 49.0336,-13.4208
 L 49.059,-13.4145 L 49.059,-13.862 L 49.034,-13.8684 L 49.009,-13.8739 L 48.9841,-13.8786 L 48.9593,-13.8824
 L 48.9346,-13.8853 L 48.91,-13.8875 L 48.8855,-13.8887 L 48.861,-13.8891 L 48.7938,-13.887 L 48.7305,-13.8805
 L 48.671,-13.8697 L 48.6155,-13.8546 L 48.5639,-13.8351 L 48.5162,-13.8113 L 48.4723,-13.7832 L 48.4324,-13.7508
 L 48.395,-13.7125 L 48.3587,-13.6667 L 48.3234,-13.6135 L 48.2893,-13.5528 L 48.2563,-13.4847 L 48.2244,-13.4091
 L 48.1936,-13.326 L 48.1639,-13.2355 L 48.153,-13.2355 L 48.1527,-13.2668 L 48.1517,-13.3106 L 48.15,-13.3668
 L 48.1476,-13.4355 L 48.1446,-13.5167 L 48.1408,-13.6103 L 48.1364,-13.7164 L 48.1314,-13.8349 L 47.6702,-13.8349
 L 47.674,-13.7423 L 47.6774,-13.6518 L 47.6801,-13.5633 L 47.6824,-13.4769 L 47.6842,-13.3924 L 47.6855,-13.31
 L 47.6862,-13.2297 L 47.6865,-13.1514 L 47.6865,-10.9 L 48.1748,-10.9 z
M 42.149,-9.74896 L 42.207,-9.75424 L 42.2634,-9.76303 L 42.3183,-9.77534 L 42.3716,-9.79117 L 42.4233,-9.81052
 L 42.4734,-9.83337 L 42.522,-9.85976 L 42.5693,-9.88972 L 42.6155,-9.92332 L 42.6607,-9.96059 L 42.7048,-10.0015
 L 42.7478,-10.046 L 42.7898,-10.0942 L 42.8307,-10.146 L 42.8706,-10.2015 L 42.9103,-10.2626 L 42.9508,-10.3311
 L 42.992,-10.4072 L 43.034,-10.4907 L 43.0768,-10.5818 L 43.1203,-10.6804 L 43.1646,-10.7864 L 43.2097,-10.9
 L 44.3381,-13.8349 L 43.8227,-13.8349 L 43.1798,-11.966 L 42.99,-11.4316 L 42.9865,-11.4446 L 42.98,-11.4659
 L 42.9705,-11.4955 L 42.9581,-11.5334 L 42.9427,-11.5796 L 42.9244,-11.6341 L 42.903,-11.6969 L 42.8788,-11.768
 L 42.8325,-11.903 L 42.7967,-12.007 L 42.7828,-12.0474 L 42.7714,-12.08 L 42.7627,-12.1048 L 42.7567,-12.1219
 L 42.7241,-12.2128 L 42.1057,-13.8349 L 41.5849,-13.8349 L 42.7486,-10.9135 L 42.7024,-10.7969 L 42.633,-10.6399
 L 42.5577,-10.5038 L 42.4764,-10.3886 L 42.3891,-10.2944 L 42.296,-10.2211 L 42.1969,-10.1688 L 42.0919,-10.1374
 L 41.9809,-10.1269 L 41.9501,-10.1272 L 41.9199,-10.1279 L 41.8904,-10.1292 L 41.8616,-10.131 L 41.8334,-10.1333
 L 41.8059,-10.1361 L 41.7791,-10.1394 L 41.753,-10.1432 L 41.753,-9.77704 L 41.788,-9.77005 L 41.8249,-9.76399
 L 41.8639,-9.75887 L 41.905,-9.75465 L 41.948,-9.7514 L 41.9931,-9.74907 L 42.0402,-9.74767 L 42.0894,-9.74721
 z
M 28.8599,-13.8349 L 28.3716,-13.8349 L 28.3716,-10.9 L 28.8599,-10.9 z
M 0.0104523,0.0994415 L 0.0207825,0.0978088 L 0.030899,0.0950928 L 0.0406647,0.0913544 L 0.0499878,0.0865936 L 0.0587769,0.0808868
 L 0.0669098,0.0743103 L 0.0743103,0.0669098 L 0.0808868,0.0587769 L 0.0865936,0.0499878 L 0.0913544,0.0406647 L 0.0950928,0.030899
 L 0.0978088,0.0207825 L 0.0994415,0.0104523 L 0.0999908,-0 L 0.0994415,-0.0104523 L 0.0978088,-0.0207825 L 0.0950928,-0.030899
 L 0.0913544,-0.0406647 L 0.0865936,-0.0499878 L 0.0808868,-0.0587769 L 0.0743103,-0.0669098 L 0.0669098,-0.0743103 L 0.0587769,-0.0808868
 L 0.0499878,-0.0865936 L 0.0406647,-0.0913544 L 0.030899,-0.0950928 L 0.0207825,-0.0978088 L 0.0104523,-0.0994415 L 0,-0.0999908
 L -0.0104523,-0.0994415 L -0.0207825,-0.0978088 L -0.030899,-0.0950928 L -0.0406647,-0.0913544 L -0.0499878,-0.0865936 L -0.0587769,-0.0808868
 L -0.0669098,-0.0743103 L -0.0743103,-0.0669098 L -0.0808868,-0.0587769 L -0.0865936,-0.0499878 L -0.0913544,-0.0406647 L -0.0950928,-0.030899
 L -0.0978088,-0.0207825 L -0.0994415,-0.0104523 L -0.0999908,-0 L -0.0994415,0.0104523 L -0.0978088,0.0207825 L -0.0950928,0.030899
 L -0.0913544,0.0406647 L -0.0865936,0.0499878 L -0.0808868,0.0587769 L -0.0743103,0.0669098 L -0.0669098,0.0743103 L -0.0587769,0.0808868
 L -0.0499878,0.0865936 L -0.0406647,0.0913544 L -0.030899,0.0950928 L -0.0207825,0.0978088 L -0.0104523,0.0994415 L 0,0.0999908
 z
" stroke="black" fill="lightgray" stroke-width="0.5"/>
</svg>
